HIERARCHY
ROOT Hips
{
	OFFSET 0.000000 0.000000 0.000000
	CHANNELS 6 Xposition Yposition Zposition Xrotation Yrotation Zrotation
	JOINT LeftUpLeg_virtual
	{
		OFFSET 0.000000 0.000000 0.000000
		CHANNELS 3 Xrotation Yrotation Zrotation
		JOINT LeftUpLeg
		{
			OFFSET 11.394100 -6.187798 -0.413800
			CHANNELS 3 Xrotation Yrotation Zrotation
			JOINT LeftLeg
			{
				OFFSET 0.430247 -32.302673 3.732800
				CHANNELS 3 Xrotation Yrotation Zrotation
				JOINT LeftFoot
				{
					OFFSET -0.430247 -48.264931 -6.423300
					CHANNELS 3 Xrotation Yrotation Zrotation
					JOINT LeftToeBase
					{
						OFFSET 4.230900 -16.068199 23.438400
						CHANNELS 3 Xrotation Yrotation Zrotation
						JOINT LeftToe_End
						{
							OFFSET 4.510700 0.695400 19.974600
							CHANNELS 3 Xrotation Yrotation Zrotation
							End Site
							{
								OFFSET 0 0 0
							}
						}
					}
				}
			}
		}
	}
	JOINT RightUpLeg_virtual
	{
		OFFSET 0.000000 0.000000 0.000000
		CHANNELS 3 Xrotation Yrotation Zrotation
		JOINT RightUpLeg
		{
			OFFSET -11.333700 -6.187798 -0.413800
			CHANNELS 3 Xrotation Yrotation Zrotation
			JOINT RightLeg
			{
				OFFSET -0.430392 -32.302628 3.733000
				CHANNELS 3 Xrotation Yrotation Zrotation
				JOINT RightFoot
				{
					OFFSET 0.430392 -48.264973 -6.423500
					CHANNELS 3 Xrotation Yrotation Zrotation
					JOINT RightToeBase
					{
						OFFSET -4.230900 -16.068199 23.438400
						CHANNELS 3 Xrotation Yrotation Zrotation
						JOINT RightToe_End
						{
							OFFSET -4.510700 0.695400 19.974600
							CHANNELS 3 Xrotation Yrotation Zrotation
							End Site
							{
								OFFSET 0 0 0
							}
						}
					}
				}
			}
		}
	}
	JOINT Spine_virtual
	{
		OFFSET 0.000000 0.000000 0.000000
		CHANNELS 3 Xrotation Yrotation Zrotation
		JOINT Spine
		{
			OFFSET -0.002400 12.777504 0.315300
			CHANNELS 3 Xrotation Yrotation Zrotation
			JOINT Spine1
			{
				OFFSET -0.002067 5.816869 0.032633
				CHANNELS 3 Xrotation Yrotation Zrotation
				JOINT Spine1_split
				{
					OFFSET -0.002067 5.816869 0.032633
					CHANNELS 3 Xrotation Yrotation Zrotation
					JOINT Spine2
					{
						OFFSET -0.002067 5.816869 0.032633
						CHANNELS 3 Xrotation Yrotation Zrotation
						JOINT Neck_virtual
						{
							OFFSET 0.000000 0.000000 0.000000
							CHANNELS 3 Xrotation Yrotation Zrotation
							JOINT Neck
							{
								OFFSET -0.003700 21.199493 -0.826900
								CHANNELS 3 Xrotation Yrotation Zrotation
								JOINT Head
								{
									OFFSET 0.000000 20.442200 4.834800
									CHANNELS 3 Xrotation Yrotation Zrotation
									JOINT HeadTop_End
									{
										OFFSET 0.000000 34.668396 4.968400
										CHANNELS 3 Xrotation Yrotation Zrotation
										End Site
										{
											OFFSET 0 0 0
										}
									}
								}
							}
						}
						JOINT LeftShoulder_virtual
						{
							OFFSET 0.000000 0.000000 0.000000
							CHANNELS 3 Xrotation Yrotation Zrotation
							JOINT LeftShoulder
							{
								OFFSET 3.288150 8.794197 -1.372250
								CHANNELS 3 Xrotation Yrotation Zrotation
								JOINT LeftShoulder_split
								{
									OFFSET 3.288150 8.794197 -1.372250
									CHANNELS 3 Xrotation Yrotation Zrotation
									JOINT LeftArm
									{
										OFFSET 11.953299 -2.279007 -0.146200
										CHANNELS 3 Xrotation Yrotation Zrotation
										JOINT LeftForeArm
										{
											OFFSET 18.448900 0.000000 0.000000
											CHANNELS 3 Xrotation Yrotation Zrotation
											JOINT LeftHand
											{
												OFFSET 29.527798 0.000000 0.000000
												CHANNELS 3 Xrotation Yrotation Zrotation
												End Site
												{
													OFFSET 0 0 0
												}
											}
										}
									}
								}
							}
						}
						JOINT RightShoulder_virtual
						{
							OFFSET 0.000000 0.000000 0.000000
							CHANNELS 3 Xrotation Yrotation Zrotation
							JOINT RightShoulder
							{
								OFFSET -3.249400 8.794197 -1.372250
								CHANNELS 3 Xrotation Yrotation Zrotation
								JOINT RightShoulder_split
								{
									OFFSET -3.249400 8.794197 -1.372250
									CHANNELS 3 Xrotation Yrotation Zrotation
									JOINT RightArm
									{
										OFFSET -11.953299 -2.279007 -0.146200
										CHANNELS 3 Xrotation Yrotation Zrotation
										JOINT RightForeArm
										{
											OFFSET -18.448900 0.000000 0.000000
											CHANNELS 3 Xrotation Yrotation Zrotation
											JOINT RightHand
											{
												OFFSET -29.527802 0.000000 0.000000
												CHANNELS 3 Xrotation Yrotation Zrotation
												End Site
												{
													OFFSET 0 0 0
												}
											}
										}
									}
								}
							}
						}
					}
				}
			}
		}
	}
}
MOTION
Frames: 11
Frame Time: 0.03333333
12.245244 46.892155 -3.868359 0.000000 0.000000 0.000000 1.248124 -27.252935 7.706064 -101.695533 -13.151195 40.479236 68.377283 13.785320 -4.977928 46.714047 -3.075308 0.068252 -1.928933 0.614305 -0.672583 0.000000 0.000000 0.000000 -2.381688 -23.402880 7.387691 8.438978 -2.298823 -17.162893 93.020401 12.855102 -2.486959 9.271394 6.793526 21.664602 33.769961 -1.342251 -15.836137 0.000000 0.000000 0.000000 -1.496564 -26.566139 6.882432 1.737865 -1.450665 -4.788271 1.977176 -1.108025 -3.310587 1.181384 1.080177 -0.162259 0.000000 0.000000 0.000000 2.160868 -1.500811 -2.932027 -4.339872 1.541015 3.858190 3.550628 20.446998 2.465969 0.000000 0.000000 0.000000 1.568661 -0.890757 -2.985689 0.386896 4.705059 2.553502 -3.346057 -0.589695 -0.163815 0.909434 -13.555910 -54.955504 -24.215536 -88.868923 -23.517549 0.000000 0.000000 0.000000 2.628442 -1.224591 -3.411461 4.353654 16.516514 8.946251 -0.832653 3.464099 0.549517 11.429913 21.962060 33.605924 179.443618 53.889933 -179.218167 0.000000 0.000000 0.000000 
12.226693 46.910168 -3.857731 0.000000 0.000000 0.000000 1.259932 -27.234186 7.713205 -101.666013 -13.141462 40.495420 68.388328 13.797196 -4.994857 46.716558 -3.056701 0.069774 -1.918705 0.614586 -0.685019 0.000000 0.000000 0.000000 -2.356728 -23.395404 7.395481 8.442700 -2.286860 -17.134284 93.074858 12.842954 -2.504413 9.220528 6.778623 21.682878 33.752910 -1.343090 -15.854235 0.000000 0.000000 0.000000 -1.474886 -26.545320 6.893899 1.746006 -1.453499 -4.800180 1.983804 -1.116936 -3.320511 1.213952 1.048539 -0.153197 0.000000 0.000000 0.000000 2.171198 -1.508543 -2.939158 -4.338224 1.543408 3.861538 3.557418 20.458770 2.453345 0.000000 0.000000 0.000000 1.572071 -0.899047 -2.991129 0.376848 4.710367 2.556077 -3.347299 -0.635027 -0.143684 0.890260 -13.551790 -54.929768 -26.168171 -88.907288 -25.458121 0.000000 0.000000 0.000000 2.631906 -1.235393 -3.415297 4.361769 16.501614 8.934967 -0.836149 3.436942 0.533526 11.375948 21.913499 33.591806 179.456459 53.869026 -179.227975 0.000000 0.000000 0.000000 
12.207308 46.943954 -3.854801 0.000000 0.000000 0.000000 1.280830 -27.208388 7.729997 -101.588846 -13.132594 40.502714 68.358104 13.821741 -5.019657 46.709792 -3.033518 0.057762 -1.904990 0.613534 -0.705450 0.000000 0.000000 0.000000 -2.331413 -23.372269 7.408317 8.443687 -2.301875 -17.075369 93.130497 12.811403 -2.512067 9.139415 6.737399 21.670809 33.743197 -1.332955 -15.884349 0.000000 0.000000 0.000000 -1.441810 -26.513493 6.917428 1.764848 -1.461386 -4.817286 1.993745 -1.124231 -3.335598 1.233130 1.053824 -0.130317 0.000000 0.000000 0.000000 2.186278 -1.513441 -2.954475 -4.321370 1.542999 3.883433 3.541807 20.472230 2.460581 0.000000 0.000000 0.000000 1.578267 -0.904577 -3.003162 0.373058 4.716045 2.558865 -3.318450 -0.685845 -0.148875 0.822757 -13.488168 -54.888063 -31.134550 -89.035511 -30.403334 0.000000 0.000000 0.000000 2.642832 -1.243881 -3.426565 4.367154 16.497376 8.936138 -0.828242 3.438324 0.541615 11.299352 21.794078 33.572945 179.476990 53.840800 -179.247960 0.000000 0.000000 0.000000 
12.188645 46.983036 -3.862484 0.000000 0.000000 0.000000 1.305768 -27.184897 7.754819 -101.476633 -13.125259 40.501786 68.292316 13.856075 -5.051888 46.690927 -3.008554 0.030843 -1.886418 0.610937 -0.729161 0.000000 0.000000 0.000000 -2.315497 -23.345412 7.428872 8.416331 -2.335199 -17.007495 93.178786 12.775502 -2.518429 9.075205 6.695119 21.658351 33.734506 -1.310271 -15.912930 0.000000 0.000000 0.000000 -1.408625 -26.486847 6.949282 1.788581 -1.472698 -4.837716 2.003328 -1.129654 -3.353351 1.218246 1.076444 -0.114547 0.000000 0.000000 0.000000 2.203252 -1.514980 -2.975274 -4.289379 1.543997 3.914291 3.503768 20.486843 2.476787 0.000000 0.000000 0.000000 1.584718 -0.907063 -3.018846 0.375198 4.723417 2.548448 -3.272555 -0.737315 -0.182703 0.735578 -13.373428 -54.835890 -40.652094 -89.215904 -39.894537 0.000000 0.000000 0.000000 2.656835 -1.248345 -3.442717 4.371049 16.501607 8.940921 -0.818383 3.471315 0.561230 11.211832 21.655618 33.545108 179.493123 53.832266 -179.267290 0.000000 0.000000 0.000000 
12.171020 47.018730 -3.874577 0.000000 0.000000 0.000000 1.329648 -27.167240 7.786025 -101.344762 -13.119833 40.497875 68.205996 13.896150 -5.089239 46.662872 -2.987257 -0.011785 -1.862017 0.606784 -0.750013 0.000000 0.000000 0.000000 -2.306599 -23.317352 7.458263 8.366338 -2.367886 -16.948187 93.211448 12.756720 -2.538991 9.053815 6.682730 21.676474 33.695106 -1.272674 -15.930523 0.000000 0.000000 0.000000 -1.391645 -26.469843 6.982614 1.815142 -1.486081 -4.859391 2.010908 -1.133015 -3.370238 1.206079 1.095004 -0.115279 0.000000 0.000000 0.000000 2.218222 -1.515044 -2.995644 -4.242170 1.552222 3.936442 3.446397 20.509084 2.485897 0.000000 0.000000 0.000000 1.589969 -0.908043 -3.033436 0.382703 4.733598 2.510372 -3.223509 -0.781690 -0.236834 0.659157 -13.230399 -54.773367 -56.650463 -89.384835 -55.866829 0.000000 0.000000 0.000000 2.668937 -1.249753 -3.459352 4.375250 16.512119 8.942756 -0.809457 3.522196 0.583028 11.119928 21.547683 33.509420 179.493628 53.854034 -179.273027 0.000000 0.000000 0.000000 
12.155065 47.044769 -3.888294 0.000000 0.000000 0.000000 1.342123 -27.159076 7.817238 -101.205625 -13.114485 40.495461 68.118651 13.938136 -5.128421 46.630159 -2.971389 -0.067509 -1.838700 0.600823 -0.758172 0.000000 0.000000 0.000000 -2.305381 -23.302466 7.491392 8.314265 -2.392601 -16.896317 93.219508 12.751959 -2.571436 9.072691 6.699105 21.714956 33.627347 -1.220997 -15.929924 0.000000 0.000000 0.000000 -1.400369 -26.465342 7.011280 1.842240 -1.500247 -4.880057 2.014932 -1.136264 -3.382042 1.198296 1.116311 -0.132077 0.000000 0.000000 0.000000 2.227914 -1.516887 -3.009841 -4.186143 1.572575 3.934924 3.377600 20.546428 2.474918 0.000000 0.000000 0.000000 1.592489 -0.909525 -3.043304 0.394690 4.745222 2.431273 -3.186401 -0.816614 -0.286197 0.623843 -13.072816 -54.700909 -77.589986 -89.481489 -76.784208 0.000000 0.000000 0.000000 2.677039 -1.250272 -3.471950 4.383715 16.529066 8.936420 -0.808145 3.570740 0.613992 11.036113 21.515166 33.475553 179.473780 53.897023 -179.257222 0.000000 0.000000 0.000000 
12.141113 47.061531 -3.899227 0.000000 0.000000 0.000000 1.333908 -27.163768 7.844139 -101.067361 -13.109081 40.496615 68.048232 13.977439 -5.163636 46.598952 -2.960037 -0.130540 -1.824155 0.593332 -0.749773 0.000000 0.000000 0.000000 -2.318167 -23.302966 7.520167 8.279153 -2.412889 -16.841442 93.193485 12.740437 -2.598960 9.104948 6.715162 21.742917 33.569690 -1.163246 -15.905298 0.000000 0.000000 0.000000 -1.434313 -26.470632 7.033072 1.867973 -1.513961 -4.897827 2.013706 -1.141144 -3.385136 1.203270 1.128159 -0.148909 0.000000 0.000000 0.000000 2.231157 -1.520988 -3.014014 -4.128352 1.609727 3.898232 3.306399 20.605709 2.438817 0.000000 0.000000 0.000000 1.592147 -0.913449 -3.044937 0.410309 4.760583 2.310045 -3.156518 -0.828190 -0.316172 0.631426 -12.909391 -54.625138 -94.829472 -89.509411 -94.008354 0.000000 0.000000 0.000000 2.681101 -1.250712 -3.476345 4.396711 16.550008 8.923785 -0.819953 3.617570 0.656835 10.966859 21.566727 33.439028 179.441992 53.945370 -179.223358 0.000000 0.000000 0.000000 
12.129461 47.072651 -3.905540 0.000000 0.000000 0.000000 1.302770 -27.181356 7.861691 -100.937348 -13.107121 40.500556 68.010707 14.014466 -5.190559 46.572178 -2.949990 -0.194727 -1.815450 0.584480 -0.729882 0.000000 0.000000 0.000000 -2.346012 -23.307121 7.539019 8.276119 -2.431178 -16.777084 93.140742 12.713316 -2.614412 9.114256 6.713364 21.749715 33.546426 -1.108426 -15.863352 0.000000 0.000000 0.000000 -1.488645 -26.478360 7.047446 1.892967 -1.526066 -4.911074 2.004968 -1.147667 -3.378408 1.217748 1.125734 -0.158051 0.000000 0.000000 0.000000 2.227268 -1.527207 -3.006518 -4.078127 1.658449 3.827458 3.245692 20.687501 2.381755 0.000000 0.000000 0.000000 1.587048 -0.919703 -3.036756 0.429126 4.778088 2.154084 -3.124466 -0.827238 -0.311802 0.672600 -12.742908 -54.555784 -103.567135 -89.520708 -102.738579 0.000000 0.000000 0.000000 2.679413 -1.252546 -3.470690 4.411533 16.572276 8.913332 -0.829777 3.673531 0.702782 10.903785 21.671219 33.410512 179.412322 53.998198 -179.183101 0.000000 0.000000 0.000000 
12.120339 47.084274 -3.904224 0.000000 0.000000 0.000000 1.256954 -27.205849 7.865536 -100.820832 -13.109732 40.505187 68.012770 14.049556 -5.206835 46.553559 -2.937710 -0.254215 -1.807929 0.574522 -0.708892 0.000000 0.000000 0.000000 -2.382854 -23.307175 7.547267 8.304162 -2.451520 -16.703682 93.070343 12.673582 -2.619737 9.086138 6.696377 21.746475 33.522500 -1.060941 -15.829920 0.000000 0.000000 0.000000 -1.550402 -26.483510 7.054798 1.915713 -1.533385 -4.916242 1.988514 -1.153604 -3.363735 1.229714 1.114640 -0.162966 0.000000 0.000000 0.000000 2.214661 -1.532011 -2.989870 -4.047731 1.710251 3.737220 3.202851 20.784740 2.317837 0.000000 0.000000 0.000000 1.575748 -0.925883 -3.021069 0.449950 4.798328 1.981712 -3.085897 -0.820888 -0.275279 0.721721 -12.570044 -54.513232 -106.157710 -89.542428 -105.329693 0.000000 0.000000 0.000000 2.670767 -1.253477 -3.456435 4.425789 16.599334 8.909791 -0.819703 3.728105 0.742691 10.850502 21.785645 33.387546 179.393662 54.070363 -179.146778 0.000000 0.000000 0.000000 
12.112350 47.103256 -3.892242 0.000000 0.000000 0.000000 1.212024 -27.233219 7.856503 -100.724369 -13.121955 40.511136 68.047836 14.079775 -5.210851 46.544020 -2.925655 -0.306595 -1.803886 0.563665 -0.694524 0.000000 0.000000 0.000000 -2.417909 -23.306134 7.545031 8.353437 -2.469995 -16.624397 93.000088 12.630165 -2.620850 9.039365 6.674965 21.750408 33.462155 -1.023036 -15.827621 0.000000 0.000000 0.000000 -1.608825 -26.481497 7.052979 1.936332 -1.533673 -4.909476 1.964625 -1.154536 -3.345448 1.239058 1.087840 -0.167024 0.000000 0.000000 0.000000 2.195454 -1.531882 -2.969319 -4.048185 1.750666 3.647476 3.179914 20.875993 2.269630 0.000000 0.000000 0.000000 1.556636 -0.927879 -3.002499 0.469878 4.820980 1.824080 -3.028962 -0.833788 -0.228445 0.754996 -12.392391 -54.517627 -107.785747 -89.565240 -106.967217 0.000000 0.000000 0.000000 2.654863 -1.250282 -3.437285 4.435318 16.628869 8.917731 -0.792858 3.781780 0.765372 10.810737 21.864858 33.359224 179.388566 54.177969 -179.119443 0.000000 0.000000 0.000000 
12.107006 47.131409 -3.872875 0.000000 0.000000 0.000000 1.178493 -27.253782 7.833754 -100.657843 -13.143909 40.520589 68.098987 14.099519 -5.204334 46.542333 -2.920945 -0.351412 -1.813004 0.551930 -0.686596 0.000000 0.000000 0.000000 -2.440656 -23.308642 7.532724 8.410399 -2.480919 -16.544381 92.940816 12.589308 -2.620435 8.990488 6.658773 21.764179 33.368333 -0.996369 -15.860669 0.000000 0.000000 0.000000 -1.652803 -26.470996 7.039238 1.954787 -1.526453 -4.889619 1.936905 -1.148741 -3.329006 1.239983 1.048050 -0.170895 0.000000 0.000000 0.000000 2.173109 -1.525511 -2.950115 -4.096114 1.768006 3.583898 3.172157 20.947283 2.256195 0.000000 0.000000 0.000000 1.529183 -0.923533 -2.987048 0.487379 4.836810 1.718329 -2.975641 -0.852602 -0.194485 0.751074 -12.211234 -54.580694 -111.461481 -89.575254 -110.658429 0.000000 0.000000 0.000000 2.632369 -1.242081 -3.418656 4.438668 16.657884 8.935559 -0.760726 3.845811 0.770494 10.793487 21.881447 33.311447 179.396230 54.304724 -179.102081 0.000000 0.000000 0.000000 
